# xmcd
#
# Track frame offsets: 
#        150
#        16800
#        30291
#        50848
#        69770
#        90220
#        113207
#        127730
#        144104
#        159698
#        173903
#
# Disc length: 2561 seconds
#
# Revision: 0
# Processed by: cddbd v1.4PL0 Copyright (c) Steve Scherf et al.
# Submitted via: ExactAudioCopy v0.90b4
#
DISCID=7909ff0b
DTITLE=Szidi Tobias - Divý mak
DYEAR=2001
DGENRE=Blues
TTITLE0=Kazdy hlada svoje miesto
TTITLE1=Ráno
TTITLE2=Obrázky o láske
TTITLE3=Príbeh z roku Pánì
TTITLE4=Idylka
TTITLE5=Miluj ma
TTITLE6=O verande
TTITLE7=Vzducho-plavec
TTITLE8=Veèer
TTITLE9=Jeseò na draka
TTITLE10=Po polnoci v júli
EXTD=
EXTT0=
EXTT1=
EXTT2=
EXTT3=
EXTT4=
EXTT5=
EXTT6=
EXTT7=
EXTT8=
EXTT9=
EXTT10=
PLAYORDER=
